# xmcd CD database file
#
# Track frame offsets:
#	150
#	24812
#	47362
#	88587
#	113750
#	134877
#	170232
#	198570
#	241190
#	267715
#	296960
#
# Disc length: 4233 seconds
#
# Revision: 0
# Processed by: cddbd v1.5.2PL0 Copyright (c) Steve Scherf et al.
# Submitted via: CDex 1.81
#
DISCID=a510870b
DTITLE=Various Artist - Tropi-Carnival II
DYEAR=1999
DGENRE=Jazz
TTITLE0=Igor's Dream
TTITLE1=Viva Cepeda
TTITLE2=Midnight Train
TTITLE3=What You Won't Do For Love
TTITLE4=Caravan
TTITLE5=Morning
TTITLE6=Tu Crees Que
TTITLE7=Afro Blue
TTITLE8=We (To Kristen And Me)
TTITLE9=Srean Low
TTITLE10=And The Melody Lingers On (A Night In Tunisia)
EXTD=YEAR: 1999
EXTT0=
EXTT1=
EXTT2=
EXTT3=
EXTT4=
EXTT5=
EXTT6=
EXTT7=
EXTT8=
EXTT9=
EXTT10=
PLAYORDER=
